<svg width="620" height="621" viewBox="0 0 620 621" fill="none" xmlns="http://www.w3.org/2000/svg">
<path d="M86.3666 85.1245L86.4907 29.3244C86.4907 27.2174 87.2347 25.6069 88.4744 24.9832C88.5985 24.8621 88.7226 24.8621 88.846 24.8621L100.75 17.7903C101.991 17.0455 103.726 17.1727 105.586 18.2867L154.194 46.3139C157.914 48.4209 160.891 53.628 160.891 57.9692L160.767 113.769C160.642 115.876 159.898 117.366 158.782 118.11L146.63 125.176L146.506 125.303C145.267 125.921 143.53 125.921 141.67 124.807L93.0623 96.7797C89.3425 94.5455 86.3666 89.3385 86.3666 85.1245Z" fill="#E4E8F4"/>
<path d="M49.0424 246.821L49.1665 190.9C49.1665 188.787 49.9105 187.304 51.1502 186.68C51.2743 186.559 51.3984 186.559 51.5226 186.559L63.4261 179.487C64.7907 178.743 66.402 178.87 68.2623 179.984L116.87 208.011C120.591 210.118 123.691 215.325 123.567 219.666L123.442 275.466C123.442 277.573 122.698 279.063 121.458 279.807L109.554 286.625C108.314 287.618 106.33 287.739 104.346 286.504L55.8623 258.477C52.0183 256.243 49.0424 251.036 49.0424 246.821Z" fill="#E4E8F4"/>
<path d="M145.391 222.021L145.514 166.221C145.514 163.987 146.382 162.504 147.623 161.88C147.623 161.88 147.623 161.88 147.746 161.759L159.775 154.687C161.014 154.07 162.75 154.07 164.611 155.184L213.219 183.211C216.938 185.439 219.914 190.646 219.914 194.866L219.791 250.666C219.791 252.9 219.046 254.384 217.806 255.007L205.902 261.946C205.779 262.073 205.655 262.2 205.531 262.2C204.291 262.939 202.555 262.818 200.694 261.704L152.087 233.677C148.367 231.57 145.391 226.363 145.391 222.021Z" fill="#E4E8F4"/>
<path d="M600.346 324.57L600.222 380.37C600.098 382.477 599.354 383.966 598.238 384.711L585.838 391.904C585.962 391.777 586.086 391.777 586.086 391.65C585.962 391.777 585.838 391.777 585.59 391.904L585.342 459.729C585.342 461.715 584.598 463.077 583.482 463.822L575.794 468.284C576.414 467.915 576.786 467.418 577.158 466.673C576.166 468.284 574.554 468.908 572.322 467.915C573.81 468.908 574.554 470.022 574.678 471.263L574.554 488.991C574.554 490.359 573.686 491.722 572.074 492.715L447.082 565.377L356.686 606.422C353.214 608.28 347.51 608.28 344.038 606.422L22.382 420.67C20.5224 419.677 19.6544 418.315 19.6544 416.946L19.7785 411.001C19.7785 411.001 19.7785 410.873 19.7785 410.746H19.9018C19.9018 409.384 20.7699 408.143 22.382 407.277L237.77 282.036C240.994 280.177 246.326 280.177 249.798 281.915C246.326 279.808 243.474 274.97 243.598 270.877L244.218 21.884C244.218 19.6498 245.21 18.1665 246.574 17.67L253.642 13.577C254.758 12.9594 256.37 13.0805 258.106 13.9463L459.73 130.384L459.854 102.115C459.854 99.8805 460.598 98.3911 461.838 97.7735C461.962 97.6463 462.086 97.6463 462.21 97.6463L474.114 90.5805C475.354 89.9629 477.09 89.9629 478.95 91.077L527.558 119.104C531.278 121.332 534.254 126.539 534.254 130.759L534.13 173.288L579.638 199.577C583.234 201.684 586.086 206.643 586.086 210.736L585.838 308.446L593.526 312.915C597.246 315.022 600.346 320.229 600.346 324.57Z" fill="#E4E8F4"/>
<path d="M574.706 471.202L574.597 489.035C574.597 490.344 573.722 491.77 572.081 492.753L447.08 565.378L356.71 606.36C353.21 608.33 347.522 608.33 344.022 606.36L22.3329 420.631C20.5831 419.649 19.7078 418.335 19.7078 416.914L19.8173 410.605C19.8173 411.919 20.6925 413.339 22.4423 414.327L344.022 600.056C347.522 602.021 353.319 602.021 356.71 600.056L572.081 474.925C573.831 473.937 574.706 472.516 574.706 471.202Z" fill="#CAD0DD"/>
<path d="M572.06 467.8C575.552 469.816 575.569 473.123 572.102 475.137L356.74 600.292C353.27 602.309 347.561 602.31 344.069 600.294L22.4049 414.581C18.9131 412.565 18.8956 409.258 22.3662 407.241L237.728 282.086C241.195 280.072 246.904 280.071 250.396 282.087L572.06 467.8Z" fill="#E4E8F4"/>
<path d="M586.043 210.676L585.386 459.737C585.386 461.707 584.621 463.128 583.527 463.785L575.761 468.271C576.964 467.614 577.62 466.188 577.62 464.223L578.386 215.163C578.386 211.114 575.542 206.195 572.042 204.113L250.463 18.4964C248.712 17.4015 247.072 17.4015 245.868 18.0584L253.634 13.5721C254.728 12.9205 256.369 13.0273 258.119 14.0101L579.698 199.632C583.199 201.709 586.043 206.633 586.043 210.676Z" fill="#E4E8F4"/>
<path d="M572.214 203.886C575.706 205.902 578.56 210.842 578.549 214.857L577.843 463.943C577.831 467.953 574.958 469.591 571.467 467.575L249.872 281.902C246.311 279.846 243.527 274.942 243.538 270.932L244.244 21.8458C244.256 17.8316 247.058 16.1574 250.62 18.2137L572.214 203.886ZM573.932 461.685L574.638 212.599C574.642 211.075 573.598 209.186 572.202 208.379L250.607 22.7067C249.211 21.9004 248.09 22.5396 248.085 24.0634L247.379 273.15C247.374 274.752 248.489 276.603 249.885 277.409L571.48 463.082C572.876 463.888 573.927 463.287 573.932 461.685Z" fill="#E4E8F4"/>
<path d="M572.216 208.327L250.637 22.7112C249.215 21.9421 248.121 22.4923 248.121 24.0197L247.356 273.192C247.356 274.725 248.449 276.584 249.871 277.459L571.45 463.076C572.872 463.845 573.966 463.294 573.966 461.655L574.623 212.595C574.623 211.062 573.638 209.203 572.216 208.327ZM562.7 327.007L562.372 437.589L259.059 262.473L259.715 41.4149L563.028 216.531L562.7 327.007Z" fill="#5B5E71"/>
<path d="M259.715 41.4153L259.059 262.473L562.372 437.589L563.028 216.531L259.715 41.4153Z" fill="#748BFD"/>
<path d="M264.314 300.927C265.726 301.746 265.665 303.027 264.324 303.803L257.63 307.676C256.224 308.489 254.077 308.485 252.665 307.666L238.276 299.322C236.864 298.503 236.859 297.259 238.265 296.446L244.96 292.572C246.3 291.797 248.513 291.763 249.925 292.582L264.314 300.927Z" fill="#5B5E71"/>
<path d="M250.725 308.789C252.137 309.607 252.073 310.891 250.736 311.665L236.341 319.993C235 320.768 232.788 320.802 231.376 319.983L216.986 311.639C215.575 310.82 215.636 309.538 216.976 308.763L231.371 300.434C232.708 299.661 234.924 299.625 236.336 300.444L250.725 308.789Z" fill="#5B5E71"/>
<path d="M351.657 351.58C353.002 352.36 353.008 353.681 351.668 354.456L344.973 358.329C343.568 359.143 341.353 359.1 340.008 358.32L325.552 349.936C324.207 349.156 324.203 347.912 325.609 347.099L332.303 343.226C333.643 342.45 335.856 342.417 337.201 343.196L351.657 351.58Z" fill="#5B5E71"/>
<path d="M329.805 338.907C331.217 339.726 331.156 341.007 329.815 341.783L323.121 345.656C321.715 346.469 319.568 346.465 318.156 345.646L303.767 337.302C302.355 336.483 302.351 335.239 303.756 334.426L310.451 330.553C311.791 329.777 314.004 329.743 315.416 330.562L329.805 338.907Z" fill="#5B5E71"/>
<path d="M313.997 345.481C315.409 346.3 315.344 347.584 314.008 348.357L299.613 356.686C298.272 357.461 296.06 357.495 294.647 356.676L280.258 348.331C278.846 347.513 278.907 346.231 280.248 345.455L294.643 337.127C295.98 336.354 298.196 336.318 299.608 337.137L313.997 345.481Z" fill="#5B5E71"/>
<path d="M373.51 364.253C374.855 365.033 374.861 366.353 373.521 367.129L366.826 371.002C365.42 371.815 363.206 371.772 361.861 370.992L347.405 362.609C346.06 361.829 345.988 360.546 347.394 359.733L354.088 355.86C355.429 355.084 357.709 355.089 359.054 355.869L373.51 364.253Z" fill="#5B5E71"/>
<path d="M398.382 394.419C399.727 395.199 399.729 396.522 398.393 397.295L383.998 405.623C382.657 406.399 380.377 406.394 379.032 405.614L364.576 397.23C363.231 396.45 363.225 395.129 364.565 394.354L378.961 386.026C380.297 385.252 382.581 385.255 383.926 386.035L398.382 394.419Z" fill="#5B5E71"/>
<path d="M439.001 402.233C440.346 403.012 440.352 404.333 439.012 405.109L432.317 408.982C430.912 409.795 428.697 409.752 427.352 408.972L412.896 400.588C411.551 399.809 411.48 398.526 412.885 397.713L419.58 393.839C420.92 393.064 423.2 393.069 424.545 393.849L439.001 402.233Z" fill="#5B5E71"/>
<path d="M419.495 406.663C420.84 407.443 420.775 408.727 419.438 409.5L405.043 417.828C403.703 418.604 401.49 418.638 400.145 417.858L385.689 409.474C384.277 408.655 384.338 407.374 385.678 406.598L400.073 398.27C401.41 397.496 403.627 397.461 405.039 398.279L419.495 406.663Z" fill="#5B5E71"/>
<path d="M240.524 326.842C241.869 327.622 241.875 328.943 240.535 329.718L226.14 338.046C224.803 338.82 222.52 338.817 221.175 338.037L196.296 323.609C194.884 322.79 194.949 321.506 196.286 320.733L210.681 312.405C212.021 311.629 214.234 311.595 215.646 312.414L240.524 326.842Z" fill="#5B5E71"/>
<path d="M261.234 338.852C262.579 339.632 262.585 340.952 261.244 341.728L246.849 350.056C245.513 350.829 243.229 350.826 241.884 350.046L227.428 341.663C226.083 340.883 226.081 339.56 227.417 338.787L241.813 330.458C243.153 329.683 245.433 329.688 246.777 330.468L261.234 338.852Z" fill="#5B5E71"/>
<path d="M281.876 350.823C283.221 351.603 283.227 352.924 281.887 353.699L267.492 362.027C266.155 362.801 263.872 362.798 262.527 362.018L248.138 353.673C246.726 352.854 246.79 351.57 248.127 350.797L262.522 342.469C263.862 341.693 266.075 341.659 267.487 342.478L281.876 350.823Z" fill="#5B5E71"/>
<path d="M245.725 353.822C247.07 354.602 247.005 355.886 245.669 356.659L231.273 364.988C229.933 365.763 227.786 365.759 226.441 364.979L211.985 356.596C210.64 355.816 210.568 354.533 211.909 353.758L226.304 345.429C227.641 344.656 229.924 344.659 231.269 345.439L245.725 353.822Z" fill="#5B5E71"/>
<path d="M335.11 357.726C336.455 358.505 336.457 359.828 335.121 360.602L320.726 368.93C319.385 369.705 317.105 369.7 315.761 368.92L301.304 360.537C299.959 359.757 299.953 358.436 301.294 357.661L315.689 349.332C317.025 348.559 319.309 348.562 320.654 349.342L335.11 357.726Z" fill="#5B5E71"/>
<path d="M213.672 359.203C215.017 359.983 214.955 361.264 213.615 362.04L199.289 370.328C197.883 371.141 195.736 371.138 194.391 370.358L155.796 347.975C154.451 347.195 154.38 345.912 155.785 345.099L170.112 336.811C171.452 336.035 173.732 336.04 175.077 336.82L213.672 359.203Z" fill="#5B5E71"/>
<path d="M302.989 363.067C304.334 363.847 304.34 365.167 303 365.943L288.605 374.271C287.268 375.045 284.985 375.042 283.64 374.262L269.183 365.878C267.839 365.098 267.836 363.775 269.173 363.002L283.568 354.674C284.908 353.898 287.188 353.903 288.533 354.683L302.989 363.067Z" fill="#5B5E71"/>
<path d="M266.368 365.794C267.712 366.573 267.715 367.896 266.378 368.67L251.983 376.998C250.643 377.773 248.428 377.73 247.083 376.951L232.627 368.567C231.282 367.787 231.211 366.504 232.551 365.729L246.946 357.4C248.283 356.627 250.566 356.63 251.911 357.41L266.368 365.794Z" fill="#5B5E71"/>
<path d="M356.223 369.97C357.568 370.75 357.503 372.033 356.167 372.807L341.772 381.135C340.431 381.911 338.218 381.944 336.874 381.165L322.417 372.781C321.073 372.001 321.066 370.68 322.407 369.905L336.802 361.577C338.138 360.803 340.422 360.806 341.767 361.586L356.223 369.97Z" fill="#5B5E71"/>
<path d="M236.129 371.448C237.541 372.267 237.477 373.551 236.14 374.324L221.745 382.653C220.405 383.428 218.192 383.462 216.78 382.643L202.391 374.298C201.046 373.518 201.04 372.198 202.38 371.422L216.775 363.094C218.112 362.321 220.395 362.324 221.74 363.103L236.129 371.448Z" fill="#5B5E71"/>
<path d="M324.035 375.272C325.447 376.091 325.386 377.372 324.046 378.148L309.651 386.476C308.314 387.25 306.097 387.285 304.685 386.467L290.296 378.122C288.952 377.342 288.949 376.019 290.286 375.246L304.681 366.918C306.021 366.142 308.301 366.147 309.646 366.927L324.035 375.272Z" fill="#5B5E71"/>
<path d="M287.481 378.037C288.825 378.817 288.828 380.14 287.491 380.914L273.096 389.242C271.756 390.017 269.541 389.974 268.196 389.194L253.74 380.811C252.395 380.031 252.324 378.748 253.664 377.973L268.059 369.644C269.396 368.871 271.68 368.874 273.024 369.654L287.481 378.037Z" fill="#5B5E71"/>
<path d="M209.529 381.463C210.873 382.243 210.945 383.526 209.539 384.339L193.404 393.674C192.064 394.45 189.784 394.445 188.439 393.665L174.05 385.32C172.638 384.501 172.699 383.22 174.039 382.444L190.174 373.109C191.58 372.296 193.728 372.3 195.14 373.119L209.529 381.463Z" fill="#5B5E71"/>
<path d="M257.242 383.692C258.654 384.511 258.59 385.795 257.253 386.568L242.858 394.896C241.518 395.672 239.305 395.706 237.893 394.887L223.504 386.542C222.092 385.723 222.153 384.442 223.493 383.666L237.888 375.338C239.225 374.564 241.441 374.529 242.853 375.347L257.242 383.692Z" fill="#5B5E71"/>
<path d="M345.149 387.516C346.561 388.335 346.499 389.617 345.159 390.392L330.764 398.72C329.427 399.494 327.211 399.53 325.799 398.711L311.41 390.366C309.998 389.547 310.063 388.264 311.399 387.49L325.794 379.162C327.135 378.386 329.347 378.352 330.759 379.171L345.149 387.516Z" fill="#5B5E71"/>
<path d="M308.526 390.243C309.938 391.062 309.873 392.345 308.537 393.119L294.142 401.447C292.801 402.222 290.654 402.219 289.242 401.4L274.853 393.055C273.441 392.236 273.436 390.992 274.777 390.217L289.172 381.888C290.509 381.115 292.725 381.079 294.137 381.898L308.526 390.243Z" fill="#5B5E71"/>
<path d="M278.356 395.936C279.7 396.716 279.703 398.039 278.366 398.812L263.971 407.14C262.631 407.916 260.351 407.911 259.006 407.131L244.55 398.747C243.205 397.967 243.199 396.647 244.539 395.871L258.934 387.543C260.271 386.77 262.554 386.773 263.899 387.553L278.356 395.936Z" fill="#5B5E71"/>
<path d="M235.146 396.32C236.491 397.1 236.496 398.344 235.09 399.157L218.955 408.492C217.615 409.267 215.402 409.301 214.057 408.521L195.028 397.486C193.684 396.706 193.678 395.386 195.018 394.61L211.153 385.275C212.559 384.462 214.773 384.505 216.118 385.285L235.146 396.32Z" fill="#5B5E71"/>
<path d="M366.262 399.76C367.606 400.54 367.613 401.861 366.272 402.636L351.877 410.964C350.54 411.738 348.257 411.735 346.912 410.955L332.456 402.571C331.111 401.791 331.108 400.468 332.445 399.695L346.84 391.367C348.18 390.591 350.46 390.597 351.805 391.376L366.262 399.76Z" fill="#5B5E71"/>
<path d="M329.639 402.487C330.984 403.266 330.987 404.589 329.65 405.363L315.255 413.691C313.914 414.466 311.7 414.423 310.355 413.644L295.899 405.26C294.554 404.48 294.483 403.197 295.823 402.422L310.218 394.093C311.555 393.32 313.838 393.323 315.183 394.103L329.639 402.487Z" fill="#5B5E71"/>
<path d="M299.468 408.18C300.813 408.96 300.816 410.283 299.479 411.056L285.084 419.384C283.744 420.16 281.463 420.155 280.119 419.375L265.662 410.991C264.318 410.211 264.311 408.891 265.652 408.115L280.047 399.787C281.384 399.013 283.667 399.017 285.012 399.796L299.468 408.18Z" fill="#5B5E71"/>
<path d="M460.853 414.906C462.198 415.686 462.204 417.006 460.864 417.782L454.17 421.655C452.764 422.468 450.549 422.425 449.204 421.645L434.748 413.262C433.403 412.482 433.332 411.199 434.738 410.386L441.432 406.513C442.772 405.737 445.052 405.742 446.397 406.522L460.853 414.906Z" fill="#5B5E71"/>
<path d="M387.374 412.004C388.719 412.784 388.658 414.066 387.318 414.841L372.923 423.17C371.586 423.943 369.369 423.979 368.025 423.199L353.568 414.815C352.156 413.996 352.221 412.713 353.558 411.939L367.953 403.611C369.293 402.835 371.506 402.802 372.918 403.621L387.374 412.004Z" fill="#5B5E71"/>
<path d="M350.685 414.692C352.097 415.511 352.033 416.795 350.696 417.568L336.301 425.896C334.961 426.672 332.813 426.668 331.401 425.849L317.012 417.504C315.667 416.725 315.596 415.442 316.936 414.666L331.331 406.338C332.668 405.564 334.951 405.568 336.296 406.347L350.685 414.692Z" fill="#5B5E71"/>
<path d="M440.541 418.868C441.953 419.687 441.888 420.971 440.551 421.744L426.156 430.072C424.816 430.848 422.603 430.882 421.191 430.063L406.802 421.718C405.39 420.899 405.451 419.618 406.792 418.842L421.187 410.514C422.523 409.741 424.74 409.705 426.152 410.524L440.541 418.868Z" fill="#5B5E71"/>
<path d="M320.514 420.385C321.926 421.204 321.861 422.488 320.525 423.262L306.13 431.59C304.789 432.365 302.577 432.399 301.165 431.58L286.775 423.236C285.363 422.417 285.425 421.135 286.765 420.36L301.16 412.031C302.497 411.258 304.713 411.222 306.125 412.041L320.514 420.385Z" fill="#5B5E71"/>
<path d="M482.639 427.539C484.051 428.358 483.99 429.64 482.649 430.416L475.955 434.289C474.549 435.102 472.402 435.098 470.99 434.279L456.601 425.934C455.189 425.115 455.184 423.872 456.59 423.058L463.285 419.185C464.625 418.41 466.838 418.376 468.25 419.195L482.639 427.539Z" fill="#5B5E71"/>
<path d="M408.42 424.21C409.765 424.989 409.771 426.31 408.431 427.085L394.036 435.414C392.699 436.187 390.416 436.184 389.071 435.404L374.682 427.06C373.269 426.241 373.334 424.957 374.671 424.184L389.066 415.855C390.406 415.08 392.619 415.046 394.031 415.865L408.42 424.21Z" fill="#5B5E71"/>
<path d="M371.799 426.936C373.211 427.755 373.146 429.039 371.809 429.812L357.414 438.14C356.074 438.916 353.926 438.912 352.514 438.093L338.125 429.748C336.713 428.929 336.709 427.686 338.049 426.91L352.444 418.582C353.781 417.809 355.997 417.772 357.409 418.591L371.799 426.936Z" fill="#5B5E71"/>
<path d="M461.654 431.112C462.999 431.892 463.001 433.215 461.664 433.988L447.269 442.317C445.929 443.092 443.649 443.087 442.304 442.307L427.848 433.923C426.503 433.143 426.497 431.823 427.837 431.047L442.232 422.719C443.569 421.946 445.853 421.949 447.197 422.728L461.654 431.112Z" fill="#5B5E71"/>
<path d="M341.627 432.63C342.972 433.409 342.975 434.732 341.638 435.506L327.243 443.834C325.903 444.609 323.623 444.604 322.278 443.824L307.821 435.441C306.477 434.661 306.538 433.379 307.878 432.604L322.273 424.275C323.61 423.502 325.826 423.466 327.171 424.246L341.627 432.63Z" fill="#5B5E71"/>
<path d="M504.491 440.213C505.836 440.993 505.842 442.313 504.502 443.089L497.808 446.962C496.402 447.775 494.187 447.732 492.842 446.952L478.386 438.569C477.041 437.789 477.037 436.545 478.443 435.732L485.137 431.858C486.477 431.083 488.69 431.049 490.035 431.829L504.491 440.213Z" fill="#5B5E71"/>
<path d="M429.533 436.454C430.878 437.233 430.884 438.554 429.544 439.33L415.149 447.658C413.812 448.431 411.528 448.428 410.184 447.648L395.727 439.265C394.383 438.485 394.38 437.162 395.717 436.389L410.112 428.06C411.452 427.285 413.732 427.29 415.077 428.07L429.533 436.454Z" fill="#5B5E71"/>
<path d="M392.911 439.18C394.256 439.96 394.259 441.283 392.922 442.056L378.527 450.385C377.187 451.16 374.972 451.117 373.627 450.337L359.171 441.953C357.826 441.174 357.754 439.891 359.095 439.115L373.49 430.787C374.827 430.014 377.11 430.017 378.455 430.796L392.911 439.18Z" fill="#5B5E71"/>
<path d="M482.7 443.317C484.112 444.136 484.047 445.42 482.71 446.193L468.315 454.521C466.975 455.297 464.762 455.331 463.35 454.512L448.961 446.167C447.616 445.387 447.61 444.067 448.95 443.291L463.345 434.963C464.682 434.189 466.966 434.192 468.31 434.972L482.7 443.317Z" fill="#5B5E71"/>
<path d="M362.74 444.873C364.085 445.653 364.02 446.937 362.684 447.71L348.289 456.039C346.948 456.814 344.736 456.848 343.391 456.068L328.934 447.684C327.59 446.905 327.583 445.584 328.924 444.808L343.319 436.48C344.656 435.707 346.939 435.71 348.284 436.49L362.74 444.873Z" fill="#5B5E71"/>
<path d="M526.344 452.886C527.689 453.665 527.695 454.986 526.354 455.761L519.66 459.634C518.254 460.448 516.04 460.405 514.695 459.625L500.239 451.241C498.894 450.461 498.822 449.179 500.228 448.365L506.923 444.492C508.263 443.717 510.543 443.722 511.888 444.502L526.344 452.886Z" fill="#5B5E71"/>
<path d="M450.579 448.659C451.991 449.478 451.93 450.759 450.59 451.535L436.195 459.863C434.858 460.636 432.642 460.672 431.23 459.854L416.84 451.509C415.496 450.729 415.493 449.406 416.83 448.633L431.225 440.304C432.565 439.529 434.845 439.534 436.19 440.314L450.579 448.659Z" fill="#5B5E71"/>
<path d="M414.024 451.424C415.369 452.204 415.372 453.527 414.035 454.3L399.64 462.629C398.299 463.404 396.085 463.361 394.74 462.581L380.284 454.197C378.939 453.418 378.867 452.135 380.208 451.359L394.603 443.031C395.939 442.258 398.223 442.261 399.568 443.041L414.024 451.424Z" fill="#5B5E71"/>
<path d="M503.409 455.327C504.754 456.107 504.756 457.43 503.42 458.203L489.024 466.532C487.684 467.307 485.404 467.302 484.059 466.522L469.603 458.138C468.258 457.358 468.252 456.038 469.593 455.262L483.988 446.934C485.324 446.161 487.608 446.164 488.953 446.943L503.409 455.327Z" fill="#5B5E71"/>
<path d="M340.443 457.384C341.788 458.164 341.859 459.447 340.453 460.26L324.318 469.595C322.978 470.37 320.698 470.365 319.354 469.585L221.117 412.615C219.772 411.835 219.766 410.515 221.107 409.739L237.242 400.404C238.647 399.591 240.862 399.634 242.207 400.414L340.443 457.384Z" fill="#5B5E71"/>
<path d="M471.692 460.903C473.104 461.722 473.043 463.003 471.703 463.779L457.308 472.107C455.971 472.88 453.755 472.916 452.343 472.097L437.886 463.714C436.542 462.934 436.606 461.65 437.943 460.877L452.338 452.548C453.679 451.773 455.891 451.739 457.236 452.519L471.692 460.903Z" fill="#5B5E71"/>
<path d="M435.07 463.63C436.482 464.448 436.417 465.732 435.081 466.506L420.686 474.834C419.345 475.609 417.198 475.605 415.786 474.787L401.397 466.442C399.985 465.623 399.981 464.379 401.321 463.604L415.716 455.275C417.053 454.502 419.269 454.466 420.681 455.285L435.07 463.63Z" fill="#5B5E71"/>
<path d="M404.899 469.322C406.244 470.102 406.246 471.425 404.91 472.199L390.515 480.527C389.174 481.302 386.894 481.297 385.55 480.517L371.093 472.134C369.748 471.354 369.742 470.033 371.083 469.258L385.478 460.929C386.814 460.156 389.098 460.159 390.443 460.939L404.899 469.322Z" fill="#5B5E71"/>
<path d="M492.806 473.147C494.15 473.927 494.156 475.247 492.816 476.023L478.421 484.351C477.084 485.124 474.801 485.121 473.456 484.342L458.999 475.958C457.655 475.178 457.652 473.855 458.989 473.082L473.384 464.753C474.724 463.978 477.004 463.983 478.349 464.763L492.806 473.147Z" fill="#5B5E71"/>
<path d="M534.608 473.421C535.953 474.201 535.888 475.484 534.551 476.258L520.156 484.586C518.816 485.361 516.603 485.395 515.259 484.616L490.313 470.149C488.968 469.369 488.962 468.048 490.302 467.273L504.697 458.945C506.034 458.171 508.318 458.174 509.663 458.954L534.608 473.421Z" fill="#5B5E71"/>
<path d="M366.263 472.358C367.607 473.138 367.679 474.421 366.273 475.234L350.138 484.569C348.798 485.345 346.518 485.339 345.173 484.56L326.212 473.563C324.8 472.745 324.861 471.463 326.201 470.687L342.336 461.352C343.742 460.539 345.889 460.543 347.301 461.362L366.263 472.358Z" fill="#5B5E71"/>
<path d="M456.183 475.873C457.528 476.653 457.53 477.976 456.194 478.749L441.799 487.077C440.458 487.853 438.244 487.81 436.899 487.03L422.442 478.646C421.098 477.866 421.026 476.584 422.366 475.808L436.762 467.48C438.098 466.706 440.382 466.71 441.727 467.489L456.183 475.873Z" fill="#5B5E71"/>
<path d="M425.945 481.528C427.357 482.347 427.292 483.63 425.955 484.404L411.56 492.732C410.22 493.508 408.007 493.541 406.595 492.722L392.206 484.378C390.794 483.559 390.855 482.277 392.196 481.502L406.591 473.174C407.927 472.4 410.144 472.364 411.556 473.183L425.945 481.528Z" fill="#5B5E71"/>
<path d="M513.919 485.391C515.263 486.171 515.202 487.452 513.862 488.228L499.467 496.556C498.13 497.33 495.914 497.366 494.569 496.586L480.113 488.202C478.7 487.383 478.765 486.099 480.102 485.326L494.497 476.998C495.837 476.222 498.05 476.188 499.462 477.007L513.919 485.391Z" fill="#5B5E71"/>
<path d="M388.385 485.187C389.797 486.006 389.801 487.25 388.395 488.063L372.26 497.398C370.92 498.174 368.707 498.207 367.295 497.389L352.502 488.81C351.158 488.03 351.152 486.709 352.492 485.934L368.627 476.599C370.033 475.786 372.247 475.829 373.592 476.608L388.385 485.187Z" fill="#5B5E71"/>
<path d="M492.896 497.164C494.241 497.944 494.243 499.267 492.906 500.04L478.511 508.368C477.171 509.144 474.957 509.101 473.612 508.321L443.757 491.008C442.345 490.189 442.341 488.945 443.681 488.169L458.076 479.841C459.413 479.068 461.63 479.032 463.042 479.851L492.896 497.164Z" fill="#5B5E71"/>
<path d="M400.256 502.777C401.668 503.596 401.673 504.84 400.267 505.653L393.373 509.642C392.033 510.417 389.82 510.451 388.408 509.632L373.615 501.054C372.203 500.235 372.264 498.953 373.605 498.178L380.499 494.189C381.905 493.376 384.052 493.38 385.464 494.199L400.256 502.777Z" fill="#5B5E71"/>
<path d="M472.206 509.134C473.551 509.914 473.557 511.235 472.216 512.01L457.89 520.298C456.485 521.112 454.27 521.069 452.926 520.289L412.649 496.932C411.304 496.152 411.233 494.869 412.639 494.056L426.965 485.767C428.305 484.992 430.585 484.997 431.93 485.777L472.206 509.134Z" fill="#5B5E71"/>
<path d="M430.61 509.675C431.955 510.455 432.027 511.738 430.621 512.551L414.486 521.886C413.146 522.661 410.865 522.656 409.521 521.876L394.661 513.259C393.316 512.479 393.31 511.158 394.65 510.383L410.785 501.048C412.191 500.234 414.406 500.277 415.75 501.057L430.61 509.675Z" fill="#5B5E71"/>
<path d="M442.684 527.382C444.097 528.201 444.101 529.445 442.695 530.258L435.801 534.247C434.46 535.023 432.248 535.057 430.836 534.238L416.043 525.659C414.631 524.84 414.692 523.558 416.033 522.783L422.927 518.794C424.332 517.981 426.48 517.985 427.892 518.804L442.684 527.382Z" fill="#5B5E71"/>
<path d="M224.814 341.696C226.159 342.476 226.161 343.799 224.825 344.572L210.429 352.9C209.089 353.676 206.874 353.633 205.53 352.853L175.676 335.54C174.264 334.721 174.259 333.477 175.6 332.701L189.995 324.373C191.331 323.6 193.548 323.564 194.96 324.383L224.814 341.696Z" fill="#5B5E71"/>
<path d="M308.019 326.273C309.364 327.053 309.303 328.334 307.963 329.11L301.268 332.983C299.862 333.796 297.715 333.792 296.37 333.012L281.914 324.629C280.569 323.849 280.498 322.566 281.903 321.753L288.598 317.879C289.938 317.104 292.218 317.109 293.563 317.889L308.019 326.273Z" fill="#5B5E71"/>
<path d="M286.167 313.6C287.511 314.38 287.518 315.7 286.177 316.476L279.483 320.349C278.077 321.162 275.862 321.119 274.518 320.339L260.061 311.956C258.716 311.176 258.645 309.893 260.051 309.08L266.745 305.207C268.086 304.431 270.365 304.436 271.71 305.216L286.167 313.6Z" fill="#5B5E71"/>
<path d="M292.951 333.277C294.296 334.057 294.299 335.38 292.962 336.153L278.567 344.481C277.227 345.257 274.946 345.251 273.602 344.472L259.145 336.088C257.801 335.308 257.794 333.987 259.135 333.212L273.53 324.884C274.867 324.11 277.15 324.113 278.495 324.893L292.951 333.277Z" fill="#5B5E71"/>
<path d="M271.838 321.033C273.183 321.812 273.186 323.135 271.849 323.908L257.454 332.237C256.113 333.012 253.834 333.007 252.489 332.227L238.032 323.843C236.688 323.064 236.682 321.743 238.022 320.968L252.417 312.639C253.754 311.866 256.037 311.869 257.382 312.649L271.838 321.033Z" fill="#5B5E71"/>
<path d="M167.504 357.092C168.849 357.872 168.921 359.155 167.515 359.968L151.38 369.303C150.04 370.079 147.76 370.073 146.415 369.293L131.958 360.91C130.614 360.13 130.675 358.848 132.015 358.073L148.15 348.738C149.556 347.924 151.703 347.929 153.048 348.708L167.504 357.092Z" fill="#5B5E71"/>
<path d="M188.55 369.297C189.895 370.077 189.966 371.36 188.561 372.173L172.426 381.508C171.085 382.284 168.805 382.279 167.46 381.499L153.004 373.115C151.659 372.335 151.653 371.014 152.994 370.239L169.129 360.904C170.534 360.091 172.749 360.134 174.094 360.913L188.55 369.297Z" fill="#5B5E71"/>
<path d="M417.148 389.56C418.56 390.379 418.499 391.661 417.159 392.436L410.464 396.309C409.059 397.122 406.911 397.118 405.499 396.3L391.11 387.955C389.698 387.136 389.694 385.892 391.099 385.079L397.794 381.206C399.134 380.43 401.347 380.397 402.759 381.215L417.148 389.56Z" fill="#5B5E71"/>
<path d="M395.296 376.887C396.708 377.706 396.646 378.987 395.306 379.763L388.612 383.636C387.206 384.449 385.059 384.445 383.647 383.626L369.258 375.282C367.913 374.502 367.841 373.219 369.247 372.406L375.941 368.533C377.282 367.757 379.562 367.762 380.907 368.542L395.296 376.887Z" fill="#5B5E71"/>
<path d="M377.269 382.175C378.681 382.994 378.616 384.278 377.279 385.051L362.884 393.379C361.544 394.155 359.331 394.189 357.919 393.37L343.53 385.025C342.118 384.206 342.179 382.925 343.52 382.149L357.915 373.821C359.251 373.047 361.468 373.011 362.88 373.83L377.269 382.175Z" fill="#5B5E71"/>
<path d="M548.197 465.559C549.542 466.339 549.481 467.621 548.14 468.396L541.446 472.269C540.04 473.082 537.893 473.079 536.548 472.299L522.092 463.915C520.68 463.096 520.676 461.852 522.081 461.039L528.776 457.166C530.116 456.39 532.329 456.357 533.741 457.175L548.197 465.559Z" fill="#5B5E71"/>
<path d="M383.786 457.079C385.198 457.897 385.133 459.181 383.796 459.955L369.401 468.283C368.061 469.058 365.848 469.092 364.436 468.273L350.047 459.929C348.635 459.11 348.696 457.828 350.037 457.053L364.432 448.724C365.768 447.951 367.985 447.915 369.397 448.734L383.786 457.079Z" fill="#5B5E71"/>
<path d="M316.253 483.173C318.714 484.594 318.728 486.837 316.282 488.259L253.05 525.006C250.603 526.427 246.729 526.428 244.267 525.007L134.952 461.979C132.534 460.583 132.479 458.314 134.925 456.892L198.158 420.146C200.604 418.724 204.52 418.75 206.938 420.146L316.253 483.173Z" fill="#CAD0DD"/>
<path d="M548.168 494.351L548.191 502.296L565.929 492.055L565.906 484.109L548.168 494.351Z" fill="#5B5E71"/>
<path d="M527.357 506.366L527.38 514.312L545.118 504.07L545.096 496.125L527.357 506.366Z" fill="#5B5E71"/>
<path d="M283.469 93.2569L283.459 96.5145L273.034 90.4951L273.043 87.2375L283.469 93.2569Z" fill="#ED435C"/>
<path d="M351.787 150.486L351.777 153.742L282.416 113.696L282.425 110.44L351.787 150.486Z" fill="#E4E8F4"/>
<path d="M303.696 113.84L303.686 117.073L282.441 104.807L282.451 101.574L303.696 113.84Z" fill="#E4E8F4"/>
<path d="M308.235 98.6751L308.226 101.933L273.059 81.6292L273.068 78.3716L308.235 98.6751Z" fill="#E4E8F4"/>
<path d="M308.26 89.8087L308.25 93.065L273.084 72.7614L273.093 69.5051L308.26 89.8087Z" fill="#EFAC41"/>
<path d="M403.544 180.368L403.535 183.624L356.204 156.298L356.214 153.042L403.544 180.368Z" fill="#ED435C"/>
<path d="M304.431 132.026L304.422 135.282L282.391 122.563L282.4 119.306L304.431 132.026Z" fill="#ED435C"/>
<path d="M281.452 154.305L281.442 157.562L272.858 152.605L272.867 149.349L281.452 154.305Z" fill="#ED435C"/>
<path d="M320.087 229.945L320.078 233.201L302.495 223.049L302.504 219.793L320.087 229.945Z" fill="#3C5DD6"/>
<path d="M290.614 204.048L290.605 207.304L272.732 196.985L272.741 193.729L290.614 204.048Z" fill="#ED435C"/>
<path d="M299.236 217.906L299.226 221.162L272.706 205.851L272.716 202.595L299.236 217.906Z" fill="#E4E8F4"/>
<path d="M317.465 219.55L317.456 222.807L293.356 208.893L293.365 205.636L317.465 219.55Z" fill="#EFAC41"/>
<path d="M301.182 174.602L301.172 177.835L272.832 161.473L272.841 158.24L301.182 174.602Z" fill="#E4E8F4"/>
<path d="M323.452 205.221L323.443 208.477L272.782 179.228L272.791 175.972L323.452 205.221Z" fill="#E4E8F4"/>
<path d="M329.414 199.783L329.405 203.039L272.807 170.362L272.816 167.106L329.414 199.783Z" fill="#E4E8F4"/>
<path d="M322.162 177.81L322.153 181.066L285.249 159.759L285.258 156.503L322.162 177.81Z" fill="#E4E8F4"/>
<path d="M322.187 168.944L322.178 172.2L272.882 143.74L272.891 140.483L322.187 168.944Z" fill="#E4E8F4"/>
<path d="M340.32 197.199L340.311 200.432L304.048 179.496L304.057 176.262L340.32 197.199Z" fill="#3C5DD6"/>
<path d="M317.537 157.379L317.528 160.635L282.341 140.319L282.35 137.063L317.537 157.379Z" fill="#E4E8F4"/>
<path d="M313.798 146.314L313.788 149.572L282.366 131.43L282.375 128.172L313.798 146.314Z" fill="#3C5DD6"/>
<path d="M369.449 169.564L369.439 172.82L307.649 137.145L307.658 133.889L369.449 169.564Z" fill="#E4E8F4"/>
<path d="M377.077 182.848L377.068 186.106L317.553 151.745L317.563 148.488L377.077 182.848Z" fill="#E4E8F4"/>
<path d="M403.519 189.234L403.509 192.49L376.555 176.928L376.564 173.672L403.519 189.234Z" fill="#E4E8F4"/>
<path d="M403.569 171.502L403.56 174.735L337.984 136.875L337.993 133.642L403.569 171.502Z" fill="#E4E8F4"/>
<path d="M335.325 132.101L335.316 135.334L311.32 121.48L311.329 118.247L335.325 132.101Z" fill="#EFAC41"/>
<path d="M403.494 198.1L403.485 201.358L381.743 188.805L381.753 185.548L403.494 198.1Z" fill="#E4E8F4"/>
<path d="M317.21 272.711L317.201 275.967L282.014 255.652L282.023 252.396L317.21 272.711Z" fill="#3C5DD6"/>
<path d="M331.406 272.026L331.396 275.283L282.039 246.786L282.048 243.53L331.406 272.026Z" fill="#E4E8F4"/>
<path d="M306.979 249.044L306.97 252.3L282.064 237.92L282.073 234.664L306.979 249.044Z" fill="#E4E8F4"/>
<path d="M341.489 260.087L341.48 263.319L306.313 243.015L306.322 239.783L341.489 260.087Z" fill="#E4E8F4"/>
<path d="M364.166 264.274L364.156 267.53L335.816 251.168L335.825 247.911L364.166 264.274Z" fill="#E4E8F4"/>
<path d="M413.955 257.473L413.945 260.729L346.591 221.842L346.6 218.586L413.955 257.473Z" fill="#ED435C"/>
<path d="M332.702 246.108L332.692 249.364L318.46 241.147L318.469 237.891L332.702 246.108Z" fill="#E4E8F4"/>
<path d="M359.69 235.024L359.681 238.28L329.437 220.819L329.447 217.562L359.69 235.024Z" fill="#E4E8F4"/>
<path d="M496.597 305.186L496.587 308.442L464.524 289.93L464.533 286.674L496.597 305.186Z" fill="#EFAC41"/>
<path d="M381.526 265.417L381.516 268.673L344.84 247.498L344.849 244.241L381.526 265.417Z" fill="#E4E8F4"/>
<path d="M406.788 271.121L406.779 274.377L342.982 237.544L342.992 234.288L406.788 271.121Z" fill="#ED435C"/>
<path d="M428.111 292.313L428.102 295.569L386.419 271.503L386.428 268.247L428.111 292.313Z" fill="#E4E8F4"/>
<path d="M442.091 309.264L442.082 312.52L368.169 269.847L368.178 266.591L442.091 309.264Z" fill="#EFAC41"/>
<path d="M467.887 324.158L467.878 327.414L448.081 315.984L448.09 312.728L467.887 324.158Z" fill="#ED435C"/>
<path d="M452.406 288.553L452.397 291.81L365.018 241.361L365.027 238.105L452.406 288.553Z" fill="#E4E8F4"/>
<path d="M460.313 284.238L460.304 287.494L416.614 262.27L416.623 259.013L460.313 284.238Z" fill="#E4E8F4"/>
<path d="M480.39 313.615L480.381 316.872L410.565 276.563L410.574 273.307L480.39 313.615Z" fill="#E4E8F4"/>
<path d="M496.521 331.809L496.512 335.065L432.219 297.945L432.228 294.689L496.521 331.809Z" fill="#E4E8F4"/>
<path d="M496.546 322.943L496.537 326.199L484.043 318.986L484.052 315.729L496.546 322.943Z" fill="#E4E8F4"/>
<path d="M496.571 314.052L496.562 317.308L455.603 293.661L455.613 290.405L496.571 314.052Z" fill="#E4E8F4"/>
<path d="M390.315 234.944L390.306 238.2L334.122 205.762L334.131 202.506L390.315 234.944Z" fill="#E4E8F4"/>
<path d="M123.597 219.638L123.466 275.445C123.422 277.586 122.68 279.07 121.501 279.769L109.186 286.931C110.366 286.232 111.151 284.748 111.151 282.607L111.283 226.8C111.326 222.521 108.27 217.28 104.558 215.141L55.999 187.105C54.1214 186.013 52.4182 185.926 51.152 186.625L63.4663 179.463C64.7326 178.766 66.4357 178.853 68.3134 179.945L116.872 207.979C120.584 210.163 123.64 215.359 123.597 219.638Z" fill="#F9BB4A"/>
<path d="M104.544 215.14C108.28 217.297 111.309 222.51 111.297 226.803L111.139 282.612C111.126 286.905 108.078 288.609 104.342 286.452L55.8019 258.428C52.0659 256.271 49.0368 251.058 49.049 246.765L49.2072 190.956C49.2194 186.663 52.2681 184.958 56.0041 187.115L104.544 215.14Z" fill="#EFAC41"/>
<path d="M65.9935 220.91L65.9495 236.428L62.8043 234.612L62.8224 228.236L56.6799 224.69L56.6618 231.066L53.5535 229.271L53.5975 213.753L56.7058 215.548L56.6884 221.67L62.8309 225.216L62.8483 219.094L65.9935 220.91Z" fill="white"/>
<path d="M79.4262 228.665L79.4179 231.597L75.0885 229.097L75.0528 241.683L71.9445 239.889L71.9802 227.303L67.6508 224.803L67.6591 221.871L79.4262 228.665Z" fill="white"/>
<path d="M96.2995 238.407L96.2925 253.946L93.3692 252.259L93.3586 242.927L89.3775 248.337L87.9713 247.525L84.0333 237.755L84.0075 246.854L81.0841 245.166L81.1281 229.648L83.6813 231.122L88.7234 243.7L93.7462 236.933L96.2995 238.407Z" fill="white"/>
<path d="M102.664 242.082L102.628 254.668L109.4 258.577L109.392 261.509L99.5119 255.805L99.5559 240.287L102.664 242.082Z" fill="white"/>
<path d="M160.871 57.9543L160.74 113.761C160.696 115.902 159.954 117.386 158.774 118.085L146.46 125.247C147.639 124.548 148.425 123.064 148.425 120.923L148.556 65.1164C148.6 60.837 145.543 55.596 141.831 53.4574L93.2727 25.4209C91.395 24.3292 89.6919 24.2418 88.4257 24.9412L100.74 17.779C102.006 17.0818 103.709 17.1692 105.587 18.2609L154.146 46.2953C157.858 48.4787 160.914 53.6749 160.871 57.9543Z" fill="#75CA75"/>
<path d="M141.818 53.4555C145.554 55.6125 148.583 60.8259 148.571 65.119L148.413 120.928C148.4 125.221 145.352 126.925 141.616 124.768L93.0758 96.7437C89.3399 94.5867 86.3107 89.3734 86.3229 85.0803L86.4811 29.2715C86.4933 24.9784 89.542 23.2741 93.278 25.4311L141.818 53.4555Z" fill="#65AA65"/>
<path d="M102.274 57.3887C103.86 58.3039 105.246 59.3889 106.532 60.7595C107.769 62.0985 108.856 63.6388 109.695 65.3203L107.012 66.6233C105.778 64.3146 104.294 62.6597 102.461 61.6014C101.371 60.9722 100.33 60.6557 99.4859 60.682C98.5926 60.7355 97.8967 61.1319 97.3984 61.8712C96.9002 62.6106 96.6492 63.6041 96.6456 64.858C96.6419 66.1675 96.8864 67.4471 97.3789 68.7585C97.8714 70.0699 98.5628 71.2671 99.453 72.2946C100.294 73.3492 101.333 74.234 102.423 74.8632C104.256 75.9215 105.745 75.9828 106.988 75.0486L109.655 79.4376C108.809 80.1466 107.717 80.4285 106.476 80.399C105.187 80.2792 103.749 79.7339 102.164 78.8187C100.331 77.7603 98.6972 76.3625 97.1641 74.5647C95.6803 72.7955 94.5446 70.8281 93.6574 68.7197C92.8198 66.5841 92.4287 64.5332 92.4347 62.4268C92.4405 60.3761 92.842 58.7827 93.6889 57.6198C94.5853 56.4822 95.7283 55.8893 97.2172 55.8363C98.7555 55.8119 100.392 56.3017 102.274 57.3887Z" fill="white"/>
<path d="M118.92 66.9995C120.109 67.686 121.248 68.455 122.337 69.4271C123.426 70.3991 124.416 71.4252 125.207 72.4511L123.908 75.3518C122.227 73.2984 120.594 71.7862 118.909 70.8137C117.72 70.1273 116.878 69.8665 116.282 69.9804C115.735 70.1198 115.486 70.5481 115.484 71.2306C115.482 71.9688 115.778 72.6531 116.421 73.3677C117.064 74.0793 118.054 74.9941 119.39 76.1092C120.777 77.3086 121.865 78.2775 122.756 79.1907C123.647 80.0485 124.388 81.1044 125.03 82.2731C125.622 83.4131 125.966 84.7499 125.962 86.118C125.958 87.3133 125.658 88.2227 125.061 88.8461C124.513 89.5013 123.619 89.7833 122.478 89.6937C121.337 89.6041 119.9 89.0587 118.265 88.1148C116.828 87.2854 115.442 86.259 114.105 85.0883C112.769 83.859 111.73 82.6901 110.89 81.4626L112.337 78.6508C113.128 79.791 114.018 80.8186 115.107 81.8462C116.146 82.8453 117.235 83.7031 118.276 84.3037C119.465 84.9902 120.357 85.2764 120.953 85.2213C121.499 85.1375 121.798 84.7378 121.799 84.0552L121.307 82.574C120.962 82.034 120.517 81.4893 120.022 81.0335C119.477 80.4903 118.784 79.92 117.893 79.121C116.507 77.9773 115.369 76.921 114.478 76.0665C113.637 75.1818 112.846 74.0972 112.254 72.9572C111.612 71.7298 111.318 70.4772 111.322 69.0534C111.325 67.8582 111.576 66.9203 112.173 66.2968C112.721 65.5861 113.615 65.3597 114.756 65.4493C115.897 65.5388 117.285 66.0556 118.92 66.9995Z" fill="white"/>
<path d="M135.417 76.524C136.606 77.2105 137.696 77.9509 138.834 78.9516C139.923 79.9237 140.863 80.9211 141.704 81.9756L140.405 84.8764C138.724 82.8229 137.041 81.2822 135.406 80.3383C134.217 79.6518 133.375 79.391 132.779 79.5048C132.233 79.6442 131.934 80.044 131.932 80.7266C131.93 81.4647 132.275 82.1776 132.918 82.8922C133.561 83.6038 134.551 84.5186 135.888 85.6338C137.274 86.833 138.363 87.802 139.253 88.7153C140.144 89.5729 140.885 90.6289 141.527 91.7976C142.119 92.9377 142.463 94.2744 142.459 95.6426C142.456 96.8378 142.155 97.7472 141.558 98.3707C141.01 99.0258 140.116 99.3077 138.975 99.2181C137.834 99.1286 136.397 98.5833 134.762 97.6394C133.325 96.8099 131.939 95.7836 130.602 94.6129C129.266 93.3835 128.178 92.186 127.387 90.9871L128.834 88.1753C129.575 89.2869 130.515 90.343 131.604 91.3707C132.643 92.3697 133.732 93.2276 134.773 93.8282C135.962 94.5147 136.854 94.801 137.45 94.7458C137.996 94.662 138.295 94.2622 138.296 93.5797L137.804 92.0984C137.459 91.5585 137.014 91.0139 136.519 90.558C135.975 90.0148 135.281 89.4445 134.341 88.617C133.004 87.5018 131.866 86.4456 130.975 85.5909C130.085 84.6777 129.343 83.6217 128.702 82.4531C128.109 81.2544 127.766 79.9731 127.77 78.5494C127.773 77.3541 128.073 76.4448 128.671 75.8214C129.219 75.1106 130.063 74.8556 131.253 74.9738C132.394 75.0634 133.782 75.5802 135.417 76.524Z" fill="white"/>
<path d="M219.906 194.915L219.775 250.721C219.731 252.862 218.989 254.346 217.81 255.046L205.495 262.208C206.674 261.508 207.46 260.024 207.46 257.884L207.591 202.077C207.635 197.798 204.578 192.557 200.866 190.418L152.308 162.382C150.43 161.29 148.727 161.202 147.461 161.902L159.775 154.74C161.041 154.042 162.744 154.13 164.622 155.222L213.181 183.256C216.893 185.439 219.949 190.636 219.906 194.915Z" fill="#EBC5B2"/>
<path d="M200.853 190.416C204.589 192.572 207.618 197.786 207.606 202.079L207.448 257.888C207.435 262.181 204.387 263.885 200.651 261.728L152.111 233.704C148.375 231.547 145.346 226.333 145.358 222.04L145.516 166.231C145.528 161.938 148.577 160.234 152.313 162.391L200.853 190.416Z" fill="#DDAF9B"/>
<path d="M166.801 198.235L166.785 203.628L154.207 201.686L166.756 214.165L166.74 219.557L148.857 201.338L148.872 195.779L166.801 198.235Z" fill="white"/>
<path d="M185.531 198.413L172.997 231.979L167.798 228.978L180.333 195.412L185.531 198.413Z" fill="white"/>
<path d="M186.223 209.449L204.107 227.669L204.091 233.228L186.162 230.771L186.178 225.379L198.684 227.365L186.208 214.841L186.223 209.449Z" fill="white"/>
<path d="M600.302 324.548L600.171 380.355C600.127 382.495 599.385 383.979 598.206 384.679L585.891 391.841C587.071 391.141 587.857 389.657 587.857 387.517L587.988 331.71C588.031 327.431 584.975 322.19 581.263 320.051L532.704 292.015C530.826 290.923 529.123 290.836 527.857 291.535L540.171 284.373C541.438 283.676 543.141 283.763 545.018 284.855L593.577 312.889C597.289 315.072 600.345 320.269 600.302 324.548Z" fill="#F25574"/>
<path d="M581.249 320.049C584.985 322.206 588.014 327.42 588.002 331.713L587.844 387.521C587.832 391.814 584.783 393.519 581.047 391.362L532.507 363.337C528.771 361.18 525.742 355.967 525.754 351.674L525.912 295.865C525.924 291.572 528.973 289.868 532.709 292.025L581.249 320.049Z" fill="#ED435C"/>
<path d="M544.39 330.479C544.945 331.785 545.199 333.067 545.195 334.399C545.191 335.73 544.931 336.763 544.37 337.428C543.81 338.09 543.036 338.385 542.006 338.282C540.975 338.231 539.773 337.783 538.401 336.991L535.228 335.159L535.213 340.137L531.611 338.057L531.662 320.07L538.438 323.982C539.81 324.774 541.01 325.714 542.038 326.851C543.066 327.988 543.835 329.171 544.39 330.479ZM540.686 334.114C541.245 333.896 541.547 333.329 541.55 332.294C541.553 331.308 541.255 330.348 540.699 329.484C540.143 328.619 539.286 327.878 538.214 327.259L535.255 325.551L535.237 331.809L538.196 333.518C539.268 334.137 540.127 334.335 540.686 334.114Z" fill="white"/>
<path d="M562.152 337.674L562.101 355.661L558.499 353.581L558.52 346.189L551.401 342.079L551.38 349.471L547.735 347.367L547.786 329.38L551.431 331.484L551.411 338.58L558.53 342.69L558.55 335.594L562.152 337.674Z" fill="white"/>
<path d="M578.612 350.238C579.166 351.543 579.42 352.825 579.417 354.157C579.413 355.488 579.152 356.521 578.592 357.186C578.031 357.848 577.257 358.143 576.227 358.04C575.196 357.989 573.995 357.542 572.622 356.749L569.449 354.917L569.435 359.895L565.833 357.815L565.884 339.828L572.659 343.74C574.032 344.533 575.232 345.472 576.259 346.609C577.287 347.746 578.057 348.929 578.612 350.238ZM574.907 353.872C575.466 353.654 575.768 353.087 575.771 352.052C575.774 351.066 575.476 350.106 574.92 349.242C574.364 348.377 573.55 347.661 572.435 347.017L569.476 345.309L569.458 351.567L572.417 353.276C573.532 353.919 574.348 354.093 574.907 353.872Z" fill="white"/>
<path d="M534.26 130.775L534.129 186.581C534.086 188.722 533.343 190.206 532.164 190.905L519.85 198.067C521.029 197.368 521.815 195.884 521.815 193.743L521.946 137.937C521.99 133.657 518.933 128.416 515.221 126.278L466.662 98.2412C464.785 97.1495 463.082 97.0621 461.815 97.7615L474.13 90.5993C475.396 89.9021 477.099 89.9895 478.977 91.0812L527.535 119.116C531.247 121.299 534.304 126.495 534.26 130.775Z" fill="#576CFB"/>
<path d="M515.208 126.275C518.944 128.432 521.973 133.646 521.961 137.939L521.802 193.748C521.79 198.041 518.741 199.745 515.006 197.588L466.466 169.564C462.73 167.407 459.701 162.193 459.713 157.9L459.871 102.091C459.883 97.7982 462.932 96.0939 466.668 98.2509L515.208 126.275Z" fill="#4562EF"/>
<path d="M486.517 120.014L486.499 126.674L485.593 126.151C484.507 125.524 483.6 125.312 483.055 125.726C482.42 125.981 482.145 126.869 482.142 128.116L482.117 136.853C482.112 138.727 481.836 139.925 481.381 140.493C480.835 141.117 480.019 141.273 478.931 141.058C480.016 142.103 480.829 143.2 481.37 144.444C481.82 145.643 482.088 147.154 482.082 149.028L482.058 157.664C482.054 159.013 482.323 160.107 482.955 161.201C483.496 162.141 484.4 163.076 485.487 163.703L486.392 164.225L486.373 170.784L483.567 169.164C480.67 167.491 478.409 165.349 476.965 162.848C475.43 160.294 474.713 157.482 474.722 154.361L474.749 144.585L474.212 142.296L472.674 140.781L471.135 139.892L471.154 133.232L472.693 134.121L474.234 134.388L474.783 132.828L474.811 122.945C474.82 119.824 475.551 117.849 477.095 117.072C478.548 116.244 480.814 116.721 483.711 118.393L486.517 120.014Z" fill="white"/>
<path d="M498.016 126.652C501.004 128.377 503.174 130.462 504.709 133.015C506.243 135.569 506.961 138.38 506.952 141.502L506.924 151.385L507.462 153.572L508.999 155.082L510.538 155.97L510.519 162.631L508.98 161.742L507.439 161.48L506.891 163.142L506.863 172.918C506.854 176.039 506.123 178.014 504.579 178.79C503.035 179.567 500.86 179.148 497.872 177.423L495.156 175.855L495.174 169.296L496.08 169.819C497.166 170.446 497.982 170.504 498.618 170.244C499.163 169.829 499.528 169.101 499.532 167.752L499.556 159.117C499.562 157.243 499.747 155.993 500.292 155.369C500.838 154.752 501.564 154.543 502.743 154.805C501.567 153.714 500.844 152.669 500.303 151.418C499.763 150.275 499.585 148.816 499.591 146.942L499.616 138.205C499.619 136.957 499.26 135.704 498.718 134.769C498.087 133.675 497.273 132.894 496.186 132.267L495.281 131.744L495.3 125.084L498.016 126.652Z" fill="white"/>
<path d="M147.871 123.645C148.216 122.912 148.409 121.998 148.412 120.926L148.487 94.5945L148.425 120.92C148.425 122.004 148.221 122.912 147.871 123.645Z" fill="#E4E8F4"/>
</svg>
